<svg width="1920" height="6844" viewBox="0 0 1920 6844" fill="none" xmlns="http://www.w3.org/2000/svg">
<path d="M764.552 -7C846.81 543.758 1138.54 556.02 1270.87 518.213C1408.76 478.817 1446.12 313.85 1362.32 215.756C1286.86 127.412 1138.54 136.565 1044.53 201.961C927.024 283.706 870.312 415.01 846.81 579.011C823.308 743.012 846.81 871.761 764.552 1106.27C682.295 1340.77 494.789 1493.02 330.784 1551.78C166.78 1610.53 24.2344 1525.72 47.7366 1396.46C71.2388 1267.2 204.348 1239.05 307.793 1274.36C480.483 1333.29 428.369 1685.13 428.369 1685.13C428.369 1685.13 400.78 1844.53 518.291 1950.29C635.802 2056.04 822.797 2056.04 940.308 2032.54C1125.26 1995.55 1503.85 1710.67 1994.33 1616.66C2332.87 1551.78 2364.74 1757.67 2517 1757.67C2669.25 1757.67 2564.51 1798.04 2635.02 1950.29C2705.52 2102.54 2656.48 2206.76 2691.73 2417.77C2726.98 2628.77 2018.85 2712.05 1749.09 2735.55C1479.32 2759.05 1057.31 2724.31 694.046 3017.06C330.784 3309.81 119.776 3204.05 -79.4817 3544.32C-278.739 3884.58 96.2737 4223.83 518.291 4317.83C940.308 4411.84 1174.82 4130.33 1362.32 3931.08C1512.33 3771.67 1636.01 3802.33 1679.09 3837.58C1741.77 3876.58 1816.85 3992 1679.09 4189.08C1542.5 4384.5 1371 4466.95 1174.82 4505.85C839 4572.42 708.842 4812 668 4907C597.494 5071 587.994 5290.99 658.5 5525.5C729.006 5760.01 935.275 5865.53 1268.83 5900.62C1586 5934 1772.59 5736.11 1807.84 5548.61C1837.24 5392.27 1764.93 5189.9 1616.25 5115.36C1428.74 5021.35 1204.45 5093.9 1088.47 5259.95C981.105 5413.67 909.921 5608.3 987.312 5958.87C1106 6496.5 705.797 6521.38 518.291 6568.38C330.784 6615.38 -20.7262 6744.64 -219.984 7060.9C-379.39 7313.9 -286.403 7205.48 -219.984 7119.65" stroke="url(#paint0_linear_119_4081)" stroke-width="80"/>
<defs>
<linearGradient id="paint0_linear_119_4081" x1="-180.132" y1="3455.42" x2="1966.76" y2="3605.51" gradientUnits="userSpaceOnUse">
<stop stop-color="#3D3D88"/>
<stop offset="1" stop-color="#D6D6EE"/>
</linearGradient>
</defs>
</svg>
