<svg width="1920" height="584" viewBox="0 0 1920 584" fill="none" xmlns="http://www.w3.org/2000/svg">
<g clip-path="url(#clip0_119_2861)">
<circle cx="32" cy="32" r="4" fill="#FAFAFA"/>
</g>
<g clip-path="url(#clip1_119_2861)">
<circle cx="120" cy="32" r="4" fill="#FAFAFA"/>
</g>
<g clip-path="url(#clip2_119_2861)">
<circle cx="208" cy="32" r="4" fill="#FAFAFA"/>
</g>
<g clip-path="url(#clip3_119_2861)">
<circle cx="296" cy="32" r="4" fill="#FAFAFA"/>
</g>
<g clip-path="url(#clip4_119_2861)">
<circle cx="384" cy="32" r="4" fill="#FAFAFA"/>
</g>
<g clip-path="url(#clip5_119_2861)">
<circle cx="472" cy="32" r="4" fill="#FAFAFA"/>
</g>
<g clip-path="url(#clip6_119_2861)">
<circle cx="32" cy="136" r="4" fill="#FAFAFA"/>
</g>
<g clip-path="url(#clip7_119_2861)">
<circle cx="120" cy="136" r="4" fill="#FAFAFA"/>
</g>
<g clip-path="url(#clip8_119_2861)">
<circle cx="208" cy="136" r="4" fill="#FAFAFA"/>
</g>
<g clip-path="url(#clip9_119_2861)">
<circle cx="296" cy="136" r="4" fill="#FAFAFA"/>
</g>
<g clip-path="url(#clip10_119_2861)">
<circle cx="384" cy="136" r="4" fill="#FAFAFA"/>
</g>
<g clip-path="url(#clip11_119_2861)">
<circle cx="472" cy="136" r="4" fill="#FAFAFA"/>
</g>
<g clip-path="url(#clip12_119_2861)">
<circle cx="32" cy="240" r="4" fill="#FAFAFA"/>
</g>
<g clip-path="url(#clip13_119_2861)">
<circle cx="120" cy="240" r="4" fill="#FAFAFA"/>
</g>
<g clip-path="url(#clip14_119_2861)">
<circle cx="208" cy="240" r="4" fill="#FAFAFA"/>
</g>
<g clip-path="url(#clip15_119_2861)">
<circle cx="296" cy="240" r="4" fill="#FAFAFA"/>
</g>
<g clip-path="url(#clip16_119_2861)">
<circle cx="384" cy="240" r="4" fill="#FAFAFA"/>
</g>
<g clip-path="url(#clip17_119_2861)">
<circle cx="472" cy="240" r="4" fill="#FAFAFA"/>
</g>
<g clip-path="url(#clip18_119_2861)">
<circle cx="32" cy="344" r="4" fill="#FAFAFA"/>
</g>
<g clip-path="url(#clip19_119_2861)">
<circle cx="120" cy="344" r="4" fill="#FAFAFA"/>
</g>
<g clip-path="url(#clip20_119_2861)">
<circle cx="208" cy="344" r="4" fill="#FAFAFA"/>
</g>
<g clip-path="url(#clip21_119_2861)">
<circle cx="296" cy="344" r="4" fill="#FAFAFA"/>
</g>
<g clip-path="url(#clip22_119_2861)">
<circle cx="384" cy="344" r="4" fill="#FAFAFA"/>
</g>
<g clip-path="url(#clip23_119_2861)">
<circle cx="472" cy="344" r="4" fill="#FAFAFA"/>
</g>
<g clip-path="url(#clip24_119_2861)">
<circle cx="32" cy="448" r="4" fill="#FAFAFA"/>
</g>
<g clip-path="url(#clip25_119_2861)">
<circle cx="120" cy="448" r="4" fill="#FAFAFA"/>
</g>
<g clip-path="url(#clip26_119_2861)">
<circle cx="208" cy="448" r="4" fill="#FAFAFA"/>
</g>
<g clip-path="url(#clip27_119_2861)">
<circle cx="296" cy="448" r="4" fill="#FAFAFA"/>
</g>
<g clip-path="url(#clip28_119_2861)">
<circle cx="384" cy="448" r="4" fill="#FAFAFA"/>
</g>
<g clip-path="url(#clip29_119_2861)">
<circle cx="472" cy="448" r="4" fill="#FAFAFA"/>
</g>
<g clip-path="url(#clip30_119_2861)">
<circle cx="32" cy="552" r="4" fill="#FAFAFA"/>
</g>
<g clip-path="url(#clip31_119_2861)">
<circle cx="120" cy="552" r="4" fill="#FAFAFA"/>
</g>
<g clip-path="url(#clip32_119_2861)">
<circle cx="208" cy="552" r="4" fill="#FAFAFA"/>
</g>
<g clip-path="url(#clip33_119_2861)">
<circle cx="296" cy="552" r="4" fill="#FAFAFA"/>
</g>
<g clip-path="url(#clip34_119_2861)">
<circle cx="384" cy="552" r="4" fill="#FAFAFA"/>
</g>
<g clip-path="url(#clip35_119_2861)">
<circle cx="472" cy="552" r="4" fill="#FAFAFA"/>
</g>
<g clip-path="url(#clip36_119_2861)">
<circle cx="576" cy="32" r="4" fill="#FAFAFA"/>
</g>
<g clip-path="url(#clip37_119_2861)">
<circle cx="664" cy="32" r="4" fill="#FAFAFA"/>
</g>
<g clip-path="url(#clip38_119_2861)">
<circle cx="752" cy="32" r="4" fill="#FAFAFA"/>
</g>
<g clip-path="url(#clip39_119_2861)">
<circle cx="840" cy="32" r="4" fill="#FAFAFA"/>
</g>
<g clip-path="url(#clip40_119_2861)">
<circle cx="928" cy="32" r="4" fill="#FAFAFA"/>
</g>
<g clip-path="url(#clip41_119_2861)">
<circle cx="1016" cy="32" r="4" fill="#FAFAFA"/>
</g>
<g clip-path="url(#clip42_119_2861)">
<circle cx="576" cy="136" r="4" fill="#FAFAFA"/>
</g>
<g clip-path="url(#clip43_119_2861)">
<circle cx="664" cy="136" r="4" fill="#FAFAFA"/>
</g>
<g clip-path="url(#clip44_119_2861)">
<circle cx="752" cy="136" r="4" fill="#FAFAFA"/>
</g>
<g clip-path="url(#clip45_119_2861)">
<circle cx="840" cy="136" r="4" fill="#FAFAFA"/>
</g>
<g clip-path="url(#clip46_119_2861)">
<circle cx="928" cy="136" r="4" fill="#FAFAFA"/>
</g>
<g clip-path="url(#clip47_119_2861)">
<circle cx="1016" cy="136" r="4" fill="#FAFAFA"/>
</g>
<g clip-path="url(#clip48_119_2861)">
<circle cx="576" cy="240" r="4" fill="#FAFAFA"/>
</g>
<g clip-path="url(#clip49_119_2861)">
<circle cx="664" cy="240" r="4" fill="#FAFAFA"/>
</g>
<g clip-path="url(#clip50_119_2861)">
<circle cx="752" cy="240" r="4" fill="#FAFAFA"/>
</g>
<g clip-path="url(#clip51_119_2861)">
<circle cx="840" cy="240" r="4" fill="#FAFAFA"/>
</g>
<g clip-path="url(#clip52_119_2861)">
<circle cx="928" cy="240" r="4" fill="#FAFAFA"/>
</g>
<g clip-path="url(#clip53_119_2861)">
<circle cx="1016" cy="240" r="4" fill="#FAFAFA"/>
</g>
<g clip-path="url(#clip54_119_2861)">
<circle cx="576" cy="344" r="4" fill="#FAFAFA"/>
</g>
<g clip-path="url(#clip55_119_2861)">
<circle cx="664" cy="344" r="4" fill="#FAFAFA"/>
</g>
<g clip-path="url(#clip56_119_2861)">
<circle cx="752" cy="344" r="4" fill="#FAFAFA"/>
</g>
<g clip-path="url(#clip57_119_2861)">
<circle cx="840" cy="344" r="4" fill="#FAFAFA"/>
</g>
<g clip-path="url(#clip58_119_2861)">
<circle cx="928" cy="344" r="4" fill="#FAFAFA"/>
</g>
<g clip-path="url(#clip59_119_2861)">
<circle cx="1016" cy="344" r="4" fill="#FAFAFA"/>
</g>
<g clip-path="url(#clip60_119_2861)">
<circle cx="576" cy="448" r="4" fill="#FAFAFA"/>
</g>
<g clip-path="url(#clip61_119_2861)">
<circle cx="664" cy="448" r="4" fill="#FAFAFA"/>
</g>
<g clip-path="url(#clip62_119_2861)">
<circle cx="752" cy="448" r="4" fill="#FAFAFA"/>
</g>
<g clip-path="url(#clip63_119_2861)">
<circle cx="840" cy="448" r="4" fill="#FAFAFA"/>
</g>
<g clip-path="url(#clip64_119_2861)">
<circle cx="928" cy="448" r="4" fill="#FAFAFA"/>
</g>
<g clip-path="url(#clip65_119_2861)">
<circle cx="1016" cy="448" r="4" fill="#FAFAFA"/>
</g>
<g clip-path="url(#clip66_119_2861)">
<circle cx="576" cy="552" r="4" fill="#FAFAFA"/>
</g>
<g clip-path="url(#clip67_119_2861)">
<circle cx="664" cy="552" r="4" fill="#FAFAFA"/>
</g>
<g clip-path="url(#clip68_119_2861)">
<circle cx="752" cy="552" r="4" fill="#FAFAFA"/>
</g>
<g clip-path="url(#clip69_119_2861)">
<circle cx="840" cy="552" r="4" fill="#FAFAFA"/>
</g>
<g clip-path="url(#clip70_119_2861)">
<circle cx="928" cy="552" r="4" fill="#FAFAFA"/>
</g>
<g clip-path="url(#clip71_119_2861)">
<circle cx="1016" cy="552" r="4" fill="#FAFAFA"/>
</g>
<g clip-path="url(#clip72_119_2861)">
<circle cx="1120" cy="32" r="4" fill="#FAFAFA"/>
</g>
<g clip-path="url(#clip73_119_2861)">
<circle cx="1208" cy="32" r="4" fill="#FAFAFA"/>
</g>
<g clip-path="url(#clip74_119_2861)">
<circle cx="1296" cy="32" r="4" fill="#FAFAFA"/>
</g>
<g clip-path="url(#clip75_119_2861)">
<circle cx="1384" cy="32" r="4" fill="#FAFAFA"/>
</g>
<g clip-path="url(#clip76_119_2861)">
<circle cx="1472" cy="32" r="4" fill="#FAFAFA"/>
</g>
<g clip-path="url(#clip77_119_2861)">
<circle cx="1560" cy="32" r="4" fill="#FAFAFA"/>
</g>
<g clip-path="url(#clip78_119_2861)">
<circle cx="1120" cy="136" r="4" fill="#FAFAFA"/>
</g>
<g clip-path="url(#clip79_119_2861)">
<circle cx="1208" cy="136" r="4" fill="#FAFAFA"/>
</g>
<g clip-path="url(#clip80_119_2861)">
<circle cx="1296" cy="136" r="4" fill="#FAFAFA"/>
</g>
<g clip-path="url(#clip81_119_2861)">
<circle cx="1384" cy="136" r="4" fill="#FAFAFA"/>
</g>
<g clip-path="url(#clip82_119_2861)">
<circle cx="1472" cy="136" r="4" fill="#FAFAFA"/>
</g>
<g clip-path="url(#clip83_119_2861)">
<circle cx="1560" cy="136" r="4" fill="#FAFAFA"/>
</g>
<g clip-path="url(#clip84_119_2861)">
<circle cx="1120" cy="240" r="4" fill="#FAFAFA"/>
</g>
<g clip-path="url(#clip85_119_2861)">
<circle cx="1208" cy="240" r="4" fill="#FAFAFA"/>
</g>
<g clip-path="url(#clip86_119_2861)">
<circle cx="1296" cy="240" r="4" fill="#FAFAFA"/>
</g>
<g clip-path="url(#clip87_119_2861)">
<circle cx="1384" cy="240" r="4" fill="#FAFAFA"/>
</g>
<g clip-path="url(#clip88_119_2861)">
<circle cx="1472" cy="240" r="4" fill="#FAFAFA"/>
</g>
<g clip-path="url(#clip89_119_2861)">
<circle cx="1560" cy="240" r="4" fill="#FAFAFA"/>
</g>
<g clip-path="url(#clip90_119_2861)">
<circle cx="1120" cy="344" r="4" fill="#FAFAFA"/>
</g>
<g clip-path="url(#clip91_119_2861)">
<circle cx="1208" cy="344" r="4" fill="#FAFAFA"/>
</g>
<g clip-path="url(#clip92_119_2861)">
<circle cx="1296" cy="344" r="4" fill="#FAFAFA"/>
</g>
<g clip-path="url(#clip93_119_2861)">
<circle cx="1384" cy="344" r="4" fill="#FAFAFA"/>
</g>
<g clip-path="url(#clip94_119_2861)">
<circle cx="1472" cy="344" r="4" fill="#FAFAFA"/>
</g>
<g clip-path="url(#clip95_119_2861)">
<circle cx="1560" cy="344" r="4" fill="#FAFAFA"/>
</g>
<g clip-path="url(#clip96_119_2861)">
<circle cx="1120" cy="448" r="4" fill="#FAFAFA"/>
</g>
<g clip-path="url(#clip97_119_2861)">
<circle cx="1208" cy="448" r="4" fill="#FAFAFA"/>
</g>
<g clip-path="url(#clip98_119_2861)">
<circle cx="1296" cy="448" r="4" fill="#FAFAFA"/>
</g>
<g clip-path="url(#clip99_119_2861)">
<circle cx="1384" cy="448" r="4" fill="#FAFAFA"/>
</g>
<g clip-path="url(#clip100_119_2861)">
<circle cx="1472" cy="448" r="4" fill="#FAFAFA"/>
</g>
<g clip-path="url(#clip101_119_2861)">
<circle cx="1560" cy="448" r="4" fill="#FAFAFA"/>
</g>
<g clip-path="url(#clip102_119_2861)">
<circle cx="1120" cy="552" r="4" fill="#FAFAFA"/>
</g>
<g clip-path="url(#clip103_119_2861)">
<circle cx="1208" cy="552" r="4" fill="#FAFAFA"/>
</g>
<g clip-path="url(#clip104_119_2861)">
<circle cx="1296" cy="552" r="4" fill="#FAFAFA"/>
</g>
<g clip-path="url(#clip105_119_2861)">
<circle cx="1384" cy="552" r="4" fill="#FAFAFA"/>
</g>
<g clip-path="url(#clip106_119_2861)">
<circle cx="1472" cy="552" r="4" fill="#FAFAFA"/>
</g>
<g clip-path="url(#clip107_119_2861)">
<circle cx="1560" cy="552" r="4" fill="#FAFAFA"/>
</g>
<g clip-path="url(#clip108_119_2861)">
<circle cx="1664" cy="32" r="4" fill="#FAFAFA"/>
</g>
<g clip-path="url(#clip109_119_2861)">
<circle cx="1752" cy="32" r="4" fill="#FAFAFA"/>
</g>
<g clip-path="url(#clip110_119_2861)">
<circle cx="1840" cy="32" r="4" fill="#FAFAFA"/>
</g>
<g clip-path="url(#clip111_119_2861)">
<circle cx="1664" cy="136" r="4" fill="#FAFAFA"/>
</g>
<g clip-path="url(#clip112_119_2861)">
<circle cx="1752" cy="136" r="4" fill="#FAFAFA"/>
</g>
<g clip-path="url(#clip113_119_2861)">
<circle cx="1840" cy="136" r="4" fill="#FAFAFA"/>
</g>
<g clip-path="url(#clip114_119_2861)">
<circle cx="1664" cy="240" r="4" fill="#FAFAFA"/>
</g>
<g clip-path="url(#clip115_119_2861)">
<circle cx="1752" cy="240" r="4" fill="#FAFAFA"/>
</g>
<g clip-path="url(#clip116_119_2861)">
<circle cx="1840" cy="240" r="4" fill="#FAFAFA"/>
</g>
<g clip-path="url(#clip117_119_2861)">
<circle cx="1664" cy="344" r="4" fill="#FAFAFA"/>
</g>
<g clip-path="url(#clip118_119_2861)">
<circle cx="1752" cy="344" r="4" fill="#FAFAFA"/>
</g>
<g clip-path="url(#clip119_119_2861)">
<circle cx="1840" cy="344" r="4" fill="#FAFAFA"/>
</g>
<g clip-path="url(#clip120_119_2861)">
<circle cx="1664" cy="448" r="4" fill="#FAFAFA"/>
</g>
<g clip-path="url(#clip121_119_2861)">
<circle cx="1752" cy="448" r="4" fill="#FAFAFA"/>
</g>
<g clip-path="url(#clip122_119_2861)">
<circle cx="1840" cy="448" r="4" fill="#FAFAFA"/>
</g>
<g clip-path="url(#clip123_119_2861)">
<circle cx="1664" cy="552" r="4" fill="#FAFAFA"/>
</g>
<g clip-path="url(#clip124_119_2861)">
<circle cx="1752" cy="552" r="4" fill="#FAFAFA"/>
</g>
<g clip-path="url(#clip125_119_2861)">
<circle cx="1840" cy="552" r="4" fill="#FAFAFA"/>
</g>
<defs>
<clipPath id="clip0_119_2861">
<rect width="64" height="64" fill="white"/>
</clipPath>
<clipPath id="clip1_119_2861">
<rect width="64" height="64" fill="white" transform="translate(88)"/>
</clipPath>
<clipPath id="clip2_119_2861">
<rect width="64" height="64" fill="white" transform="translate(176)"/>
</clipPath>
<clipPath id="clip3_119_2861">
<rect width="64" height="64" fill="white" transform="translate(264)"/>
</clipPath>
<clipPath id="clip4_119_2861">
<rect width="64" height="64" fill="white" transform="translate(352)"/>
</clipPath>
<clipPath id="clip5_119_2861">
<rect width="64" height="64" fill="white" transform="translate(440)"/>
</clipPath>
<clipPath id="clip6_119_2861">
<rect width="64" height="64" fill="white" transform="translate(0 104)"/>
</clipPath>
<clipPath id="clip7_119_2861">
<rect width="64" height="64" fill="white" transform="translate(88 104)"/>
</clipPath>
<clipPath id="clip8_119_2861">
<rect width="64" height="64" fill="white" transform="translate(176 104)"/>
</clipPath>
<clipPath id="clip9_119_2861">
<rect width="64" height="64" fill="white" transform="translate(264 104)"/>
</clipPath>
<clipPath id="clip10_119_2861">
<rect width="64" height="64" fill="white" transform="translate(352 104)"/>
</clipPath>
<clipPath id="clip11_119_2861">
<rect width="64" height="64" fill="white" transform="translate(440 104)"/>
</clipPath>
<clipPath id="clip12_119_2861">
<rect width="64" height="64" fill="white" transform="translate(0 208)"/>
</clipPath>
<clipPath id="clip13_119_2861">
<rect width="64" height="64" fill="white" transform="translate(88 208)"/>
</clipPath>
<clipPath id="clip14_119_2861">
<rect width="64" height="64" fill="white" transform="translate(176 208)"/>
</clipPath>
<clipPath id="clip15_119_2861">
<rect width="64" height="64" fill="white" transform="translate(264 208)"/>
</clipPath>
<clipPath id="clip16_119_2861">
<rect width="64" height="64" fill="white" transform="translate(352 208)"/>
</clipPath>
<clipPath id="clip17_119_2861">
<rect width="64" height="64" fill="white" transform="translate(440 208)"/>
</clipPath>
<clipPath id="clip18_119_2861">
<rect width="64" height="64" fill="white" transform="translate(0 312)"/>
</clipPath>
<clipPath id="clip19_119_2861">
<rect width="64" height="64" fill="white" transform="translate(88 312)"/>
</clipPath>
<clipPath id="clip20_119_2861">
<rect width="64" height="64" fill="white" transform="translate(176 312)"/>
</clipPath>
<clipPath id="clip21_119_2861">
<rect width="64" height="64" fill="white" transform="translate(264 312)"/>
</clipPath>
<clipPath id="clip22_119_2861">
<rect width="64" height="64" fill="white" transform="translate(352 312)"/>
</clipPath>
<clipPath id="clip23_119_2861">
<rect width="64" height="64" fill="white" transform="translate(440 312)"/>
</clipPath>
<clipPath id="clip24_119_2861">
<rect width="64" height="64" fill="white" transform="translate(0 416)"/>
</clipPath>
<clipPath id="clip25_119_2861">
<rect width="64" height="64" fill="white" transform="translate(88 416)"/>
</clipPath>
<clipPath id="clip26_119_2861">
<rect width="64" height="64" fill="white" transform="translate(176 416)"/>
</clipPath>
<clipPath id="clip27_119_2861">
<rect width="64" height="64" fill="white" transform="translate(264 416)"/>
</clipPath>
<clipPath id="clip28_119_2861">
<rect width="64" height="64" fill="white" transform="translate(352 416)"/>
</clipPath>
<clipPath id="clip29_119_2861">
<rect width="64" height="64" fill="white" transform="translate(440 416)"/>
</clipPath>
<clipPath id="clip30_119_2861">
<rect width="64" height="64" fill="white" transform="translate(0 520)"/>
</clipPath>
<clipPath id="clip31_119_2861">
<rect width="64" height="64" fill="white" transform="translate(88 520)"/>
</clipPath>
<clipPath id="clip32_119_2861">
<rect width="64" height="64" fill="white" transform="translate(176 520)"/>
</clipPath>
<clipPath id="clip33_119_2861">
<rect width="64" height="64" fill="white" transform="translate(264 520)"/>
</clipPath>
<clipPath id="clip34_119_2861">
<rect width="64" height="64" fill="white" transform="translate(352 520)"/>
</clipPath>
<clipPath id="clip35_119_2861">
<rect width="64" height="64" fill="white" transform="translate(440 520)"/>
</clipPath>
<clipPath id="clip36_119_2861">
<rect width="64" height="64" fill="white" transform="translate(544)"/>
</clipPath>
<clipPath id="clip37_119_2861">
<rect width="64" height="64" fill="white" transform="translate(632)"/>
</clipPath>
<clipPath id="clip38_119_2861">
<rect width="64" height="64" fill="white" transform="translate(720)"/>
</clipPath>
<clipPath id="clip39_119_2861">
<rect width="64" height="64" fill="white" transform="translate(808)"/>
</clipPath>
<clipPath id="clip40_119_2861">
<rect width="64" height="64" fill="white" transform="translate(896)"/>
</clipPath>
<clipPath id="clip41_119_2861">
<rect width="64" height="64" fill="white" transform="translate(984)"/>
</clipPath>
<clipPath id="clip42_119_2861">
<rect width="64" height="64" fill="white" transform="translate(544 104)"/>
</clipPath>
<clipPath id="clip43_119_2861">
<rect width="64" height="64" fill="white" transform="translate(632 104)"/>
</clipPath>
<clipPath id="clip44_119_2861">
<rect width="64" height="64" fill="white" transform="translate(720 104)"/>
</clipPath>
<clipPath id="clip45_119_2861">
<rect width="64" height="64" fill="white" transform="translate(808 104)"/>
</clipPath>
<clipPath id="clip46_119_2861">
<rect width="64" height="64" fill="white" transform="translate(896 104)"/>
</clipPath>
<clipPath id="clip47_119_2861">
<rect width="64" height="64" fill="white" transform="translate(984 104)"/>
</clipPath>
<clipPath id="clip48_119_2861">
<rect width="64" height="64" fill="white" transform="translate(544 208)"/>
</clipPath>
<clipPath id="clip49_119_2861">
<rect width="64" height="64" fill="white" transform="translate(632 208)"/>
</clipPath>
<clipPath id="clip50_119_2861">
<rect width="64" height="64" fill="white" transform="translate(720 208)"/>
</clipPath>
<clipPath id="clip51_119_2861">
<rect width="64" height="64" fill="white" transform="translate(808 208)"/>
</clipPath>
<clipPath id="clip52_119_2861">
<rect width="64" height="64" fill="white" transform="translate(896 208)"/>
</clipPath>
<clipPath id="clip53_119_2861">
<rect width="64" height="64" fill="white" transform="translate(984 208)"/>
</clipPath>
<clipPath id="clip54_119_2861">
<rect width="64" height="64" fill="white" transform="translate(544 312)"/>
</clipPath>
<clipPath id="clip55_119_2861">
<rect width="64" height="64" fill="white" transform="translate(632 312)"/>
</clipPath>
<clipPath id="clip56_119_2861">
<rect width="64" height="64" fill="white" transform="translate(720 312)"/>
</clipPath>
<clipPath id="clip57_119_2861">
<rect width="64" height="64" fill="white" transform="translate(808 312)"/>
</clipPath>
<clipPath id="clip58_119_2861">
<rect width="64" height="64" fill="white" transform="translate(896 312)"/>
</clipPath>
<clipPath id="clip59_119_2861">
<rect width="64" height="64" fill="white" transform="translate(984 312)"/>
</clipPath>
<clipPath id="clip60_119_2861">
<rect width="64" height="64" fill="white" transform="translate(544 416)"/>
</clipPath>
<clipPath id="clip61_119_2861">
<rect width="64" height="64" fill="white" transform="translate(632 416)"/>
</clipPath>
<clipPath id="clip62_119_2861">
<rect width="64" height="64" fill="white" transform="translate(720 416)"/>
</clipPath>
<clipPath id="clip63_119_2861">
<rect width="64" height="64" fill="white" transform="translate(808 416)"/>
</clipPath>
<clipPath id="clip64_119_2861">
<rect width="64" height="64" fill="white" transform="translate(896 416)"/>
</clipPath>
<clipPath id="clip65_119_2861">
<rect width="64" height="64" fill="white" transform="translate(984 416)"/>
</clipPath>
<clipPath id="clip66_119_2861">
<rect width="64" height="64" fill="white" transform="translate(544 520)"/>
</clipPath>
<clipPath id="clip67_119_2861">
<rect width="64" height="64" fill="white" transform="translate(632 520)"/>
</clipPath>
<clipPath id="clip68_119_2861">
<rect width="64" height="64" fill="white" transform="translate(720 520)"/>
</clipPath>
<clipPath id="clip69_119_2861">
<rect width="64" height="64" fill="white" transform="translate(808 520)"/>
</clipPath>
<clipPath id="clip70_119_2861">
<rect width="64" height="64" fill="white" transform="translate(896 520)"/>
</clipPath>
<clipPath id="clip71_119_2861">
<rect width="64" height="64" fill="white" transform="translate(984 520)"/>
</clipPath>
<clipPath id="clip72_119_2861">
<rect width="64" height="64" fill="white" transform="translate(1088)"/>
</clipPath>
<clipPath id="clip73_119_2861">
<rect width="64" height="64" fill="white" transform="translate(1176)"/>
</clipPath>
<clipPath id="clip74_119_2861">
<rect width="64" height="64" fill="white" transform="translate(1264)"/>
</clipPath>
<clipPath id="clip75_119_2861">
<rect width="64" height="64" fill="white" transform="translate(1352)"/>
</clipPath>
<clipPath id="clip76_119_2861">
<rect width="64" height="64" fill="white" transform="translate(1440)"/>
</clipPath>
<clipPath id="clip77_119_2861">
<rect width="64" height="64" fill="white" transform="translate(1528)"/>
</clipPath>
<clipPath id="clip78_119_2861">
<rect width="64" height="64" fill="white" transform="translate(1088 104)"/>
</clipPath>
<clipPath id="clip79_119_2861">
<rect width="64" height="64" fill="white" transform="translate(1176 104)"/>
</clipPath>
<clipPath id="clip80_119_2861">
<rect width="64" height="64" fill="white" transform="translate(1264 104)"/>
</clipPath>
<clipPath id="clip81_119_2861">
<rect width="64" height="64" fill="white" transform="translate(1352 104)"/>
</clipPath>
<clipPath id="clip82_119_2861">
<rect width="64" height="64" fill="white" transform="translate(1440 104)"/>
</clipPath>
<clipPath id="clip83_119_2861">
<rect width="64" height="64" fill="white" transform="translate(1528 104)"/>
</clipPath>
<clipPath id="clip84_119_2861">
<rect width="64" height="64" fill="white" transform="translate(1088 208)"/>
</clipPath>
<clipPath id="clip85_119_2861">
<rect width="64" height="64" fill="white" transform="translate(1176 208)"/>
</clipPath>
<clipPath id="clip86_119_2861">
<rect width="64" height="64" fill="white" transform="translate(1264 208)"/>
</clipPath>
<clipPath id="clip87_119_2861">
<rect width="64" height="64" fill="white" transform="translate(1352 208)"/>
</clipPath>
<clipPath id="clip88_119_2861">
<rect width="64" height="64" fill="white" transform="translate(1440 208)"/>
</clipPath>
<clipPath id="clip89_119_2861">
<rect width="64" height="64" fill="white" transform="translate(1528 208)"/>
</clipPath>
<clipPath id="clip90_119_2861">
<rect width="64" height="64" fill="white" transform="translate(1088 312)"/>
</clipPath>
<clipPath id="clip91_119_2861">
<rect width="64" height="64" fill="white" transform="translate(1176 312)"/>
</clipPath>
<clipPath id="clip92_119_2861">
<rect width="64" height="64" fill="white" transform="translate(1264 312)"/>
</clipPath>
<clipPath id="clip93_119_2861">
<rect width="64" height="64" fill="white" transform="translate(1352 312)"/>
</clipPath>
<clipPath id="clip94_119_2861">
<rect width="64" height="64" fill="white" transform="translate(1440 312)"/>
</clipPath>
<clipPath id="clip95_119_2861">
<rect width="64" height="64" fill="white" transform="translate(1528 312)"/>
</clipPath>
<clipPath id="clip96_119_2861">
<rect width="64" height="64" fill="white" transform="translate(1088 416)"/>
</clipPath>
<clipPath id="clip97_119_2861">
<rect width="64" height="64" fill="white" transform="translate(1176 416)"/>
</clipPath>
<clipPath id="clip98_119_2861">
<rect width="64" height="64" fill="white" transform="translate(1264 416)"/>
</clipPath>
<clipPath id="clip99_119_2861">
<rect width="64" height="64" fill="white" transform="translate(1352 416)"/>
</clipPath>
<clipPath id="clip100_119_2861">
<rect width="64" height="64" fill="white" transform="translate(1440 416)"/>
</clipPath>
<clipPath id="clip101_119_2861">
<rect width="64" height="64" fill="white" transform="translate(1528 416)"/>
</clipPath>
<clipPath id="clip102_119_2861">
<rect width="64" height="64" fill="white" transform="translate(1088 520)"/>
</clipPath>
<clipPath id="clip103_119_2861">
<rect width="64" height="64" fill="white" transform="translate(1176 520)"/>
</clipPath>
<clipPath id="clip104_119_2861">
<rect width="64" height="64" fill="white" transform="translate(1264 520)"/>
</clipPath>
<clipPath id="clip105_119_2861">
<rect width="64" height="64" fill="white" transform="translate(1352 520)"/>
</clipPath>
<clipPath id="clip106_119_2861">
<rect width="64" height="64" fill="white" transform="translate(1440 520)"/>
</clipPath>
<clipPath id="clip107_119_2861">
<rect width="64" height="64" fill="white" transform="translate(1528 520)"/>
</clipPath>
<clipPath id="clip108_119_2861">
<rect width="64" height="64" fill="white" transform="translate(1632)"/>
</clipPath>
<clipPath id="clip109_119_2861">
<rect width="64" height="64" fill="white" transform="translate(1720)"/>
</clipPath>
<clipPath id="clip110_119_2861">
<rect width="64" height="64" fill="white" transform="translate(1808)"/>
</clipPath>
<clipPath id="clip111_119_2861">
<rect width="64" height="64" fill="white" transform="translate(1632 104)"/>
</clipPath>
<clipPath id="clip112_119_2861">
<rect width="64" height="64" fill="white" transform="translate(1720 104)"/>
</clipPath>
<clipPath id="clip113_119_2861">
<rect width="64" height="64" fill="white" transform="translate(1808 104)"/>
</clipPath>
<clipPath id="clip114_119_2861">
<rect width="64" height="64" fill="white" transform="translate(1632 208)"/>
</clipPath>
<clipPath id="clip115_119_2861">
<rect width="64" height="64" fill="white" transform="translate(1720 208)"/>
</clipPath>
<clipPath id="clip116_119_2861">
<rect width="64" height="64" fill="white" transform="translate(1808 208)"/>
</clipPath>
<clipPath id="clip117_119_2861">
<rect width="64" height="64" fill="white" transform="translate(1632 312)"/>
</clipPath>
<clipPath id="clip118_119_2861">
<rect width="64" height="64" fill="white" transform="translate(1720 312)"/>
</clipPath>
<clipPath id="clip119_119_2861">
<rect width="64" height="64" fill="white" transform="translate(1808 312)"/>
</clipPath>
<clipPath id="clip120_119_2861">
<rect width="64" height="64" fill="white" transform="translate(1632 416)"/>
</clipPath>
<clipPath id="clip121_119_2861">
<rect width="64" height="64" fill="white" transform="translate(1720 416)"/>
</clipPath>
<clipPath id="clip122_119_2861">
<rect width="64" height="64" fill="white" transform="translate(1808 416)"/>
</clipPath>
<clipPath id="clip123_119_2861">
<rect width="64" height="64" fill="white" transform="translate(1632 520)"/>
</clipPath>
<clipPath id="clip124_119_2861">
<rect width="64" height="64" fill="white" transform="translate(1720 520)"/>
</clipPath>
<clipPath id="clip125_119_2861">
<rect width="64" height="64" fill="white" transform="translate(1808 520)"/>
</clipPath>
</defs>
</svg>
