<svg width="434" height="130" viewBox="0 0 434 130" fill="none" xmlns="http://www.w3.org/2000/svg">
<g clip-path="url(#clip0_119_4933)">
<path d="M434 61.4331V71.968C431.655 69.7488 428.549 68.5498 425.346 68.6269C422 68.6269 419.404 69.6679 417.558 71.7497C415.713 73.8334 414.723 76.5552 414.789 79.3574C414.748 80.7926 414.999 82.2209 415.528 83.5523C416.057 84.8837 416.851 86.0893 417.861 87.093C418.892 88.118 420.116 88.9205 421.459 89.452C422.803 89.9835 424.238 90.2331 425.679 90.1857C428.767 90.1946 431.74 88.9987 433.985 86.8447V97.3118C430.983 98.8663 427.664 99.6809 424.295 99.6897C418.471 99.6897 413.654 97.841 409.844 94.1438C405.871 90.3362 403.882 85.4701 403.877 79.5455C403.877 73.0992 406.039 67.9422 410.362 64.0744C413.995 60.7835 418.493 59.1405 423.858 59.1456C427.366 59.1122 430.835 59.8946 434 61.4331Z" fill="#31313C"/>
<path d="M147.056 68.882H136.736V99.6889H125.498V68.882V59.1448V49.0313C125.498 47.0974 125.498 45.6978 125.594 44.8249C125.723 43.6123 125.987 42.4183 126.379 41.2656C126.842 39.7566 127.542 38.3336 128.452 37.0517C131.768 32.5368 137.079 30.2793 144.383 30.2793C152.176 30.2793 157.549 32.5368 160.5 37.0517C160.811 37.5483 161.1 38.0525 161.381 38.5567C161.652 39.0504 161.883 39.5664 162.069 40.0993C162.255 40.6335 162.425 41.1001 162.573 41.5064C162.747 41.991 162.857 42.4972 162.899 43.0114C162.934 43.4513 162.996 43.8886 163.084 44.3207C163.16 44.7684 163.205 45.221 163.217 45.6752C163.254 46.2998 163.269 46.6911 163.269 46.8491V51.7629H152.031V49.3173C152.031 46.8792 151.631 45.0055 150.832 43.6962C149.543 41.6544 147.387 40.6335 144.361 40.6335C141.336 40.6335 139.218 41.6619 138.009 43.7188C137.062 45.4297 136.613 47.3792 136.714 49.3398V59.1448H147.034L147.056 68.882Z" fill="#31313C"/>
<path d="M163.269 59.1455H152.031V99.6821H163.269V59.1455Z" fill="#31313C"/>
<path d="M170.271 99.6889V59.1448H181.509V64.4122C182.855 62.3502 184.693 60.6679 186.851 59.5219C189.008 58.3759 191.416 57.8035 193.85 57.8581C199.067 57.8581 202.998 59.511 205.644 62.817C207.726 65.4306 208.768 69.2307 208.768 74.2172V99.6889H197.53V77.5883C197.53 73.7807 196.824 71.1295 195.412 69.6345C194.729 68.9357 193.908 68.3909 193.004 68.0357C192.1 67.6804 191.132 67.5227 190.164 67.5727C187.089 67.5727 184.787 68.7591 183.257 71.132C182.087 73.0032 181.502 75.6243 181.502 78.9955V99.6889H170.271Z" fill="#31313C"/>
<path d="M210.012 59.1455H222.545L233.043 82.0212L243.563 59.1455H256.074L235.989 99.6896H230.067L210.012 59.1455Z" fill="#31313C"/>
<path d="M284.049 86.2345L293.74 87.8148C293.314 88.9101 292.775 89.9569 292.133 90.9376C291.218 92.2773 290.192 93.5359 289.068 94.7C287.489 96.3238 285.564 97.557 283.442 98.3045C280.832 99.2591 278.072 99.7232 275.299 99.674C269.416 99.674 264.628 97.8856 260.936 94.3087C256.988 90.5563 255.026 85.6024 255.051 79.4471C255.076 73.2917 256.978 68.3077 260.759 64.4951C264.337 60.9233 269.038 59.1349 274.862 59.1299C281.204 59.1299 286.077 61.2118 289.483 65.3755C292.479 69.0126 293.979 73.994 293.984 80.32V81.2004H265.963C265.876 83.4833 266.514 85.7342 267.784 87.6191C269.517 90.0271 272.019 91.2311 275.313 91.2311C277.084 91.317 278.843 90.8938 280.388 90.01C281.933 89.1263 283.202 87.8177 284.049 86.2345ZM266.282 74.3603H284.049C283.769 72.1206 282.633 70.0827 280.888 68.6865C279.244 67.3884 277.217 66.6912 275.136 66.7074C273.076 66.703 271.076 67.4176 269.472 68.7316C267.746 70.1249 266.614 72.1407 266.311 74.3603H266.282Z" fill="#31313C"/>
<path d="M326.64 63.2086L321.457 69.4467C319.819 67.8138 317.615 66.9004 315.32 66.9033C314.27 66.848 313.231 67.1412 312.359 67.7386C312.011 67.9965 311.731 68.3371 311.542 68.7307C311.354 69.1242 311.263 69.5587 311.278 69.9961C311.278 71.501 312.403 72.6423 314.654 73.4199L317.164 74.2175C322.064 75.7977 325.238 77.6138 326.684 79.6655C327.977 81.5092 328.645 83.7305 328.587 85.994C328.626 87.8166 328.275 89.626 327.558 91.297C326.841 92.968 325.774 94.4604 324.433 95.671C321.546 98.3649 317.795 99.7144 313.181 99.7194C310.453 99.7846 307.744 99.2526 305.236 98.1593C302.729 97.0661 300.482 95.4373 298.648 93.3834L304.186 86.8744C306.654 89.8091 309.422 91.2764 312.492 91.2764C313.81 91.3251 315.109 90.9397 316.194 90.1778C316.666 89.8392 317.048 89.3871 317.306 88.8619C317.565 88.3368 317.691 87.7548 317.674 87.1679C317.674 85.4146 316.579 84.1203 314.387 83.3001L311.967 82.4196C308.211 81.0702 305.528 79.5476 303.919 77.852C302.054 75.8991 301.027 73.2744 301.062 70.5529C301.022 68.9089 301.351 67.2773 302.026 65.7827C302.701 64.2882 303.703 62.9702 304.956 61.9294C307.206 60.1184 310.466 59.2104 314.735 59.2054C319.034 59.139 323.228 60.5495 326.64 63.2086Z" fill="#31313C"/>
<path d="M357.282 68.8825H349.546V99.6894H338.323V68.8825H333.881V59.1453H338.323V45.292H349.561V59.1453H357.297L357.282 68.8825Z" fill="#31313C"/>
<path d="M389.1 86.2345L398.791 87.8148C398.364 88.9102 397.826 89.9569 397.184 90.9376C396.266 92.2771 395.238 93.5357 394.112 94.7C392.536 96.3237 390.613 97.557 388.493 98.3045C385.883 99.2588 383.123 99.7228 380.349 99.674C374.471 99.674 369.684 97.8856 365.987 94.3088C362.069 90.5563 360.109 85.6025 360.109 79.4471C360.109 73.2917 362.012 68.3077 365.817 64.4951C369.395 60.9233 374.096 59.1349 379.92 59.1299C386.262 59.1299 391.136 61.2118 394.541 65.3755C397.532 69.0226 399.028 74.0091 399.028 80.335V81.2154H371.014C370.926 83.4984 371.565 85.7493 372.835 87.6342C374.563 90.0421 377.07 91.2461 380.357 91.2461C382.131 91.3321 383.892 90.9073 385.439 90.0207C386.985 89.1341 388.255 87.8218 389.1 86.2345ZM371.332 74.3603H389.1C388.82 72.1206 387.684 70.0827 385.939 68.6865C384.295 67.3884 382.268 66.6912 380.187 66.7074C378.126 66.703 376.127 67.4176 374.523 68.7316C372.794 70.1224 371.661 72.1394 371.362 74.3603H371.332Z" fill="#31313C"/>
<path d="M63.3262 79.5727H63.5779H64.259C66.9862 79.3823 69.5396 78.1436 71.4007 76.1085C73.2617 74.0733 74.2906 71.3943 74.2783 68.6158C74.2661 65.8373 73.2136 63.1678 71.3347 61.1496C69.4558 59.1315 66.8915 57.9162 64.1628 57.7506H63.7186C60.9657 57.8052 58.3388 58.933 56.3808 60.9007C54.4229 62.8684 53.2837 65.5257 53.1988 68.323C53.1988 68.4209 53.1988 68.5187 53.1988 68.6165C53.1988 68.7143 53.1988 68.8122 53.1988 68.91C53.1988 69.0078 53.1988 69.1056 53.1988 69.2034C53.0519 73.1416 51.4894 76.8884 48.8071 79.7341C46.1248 82.5798 42.5089 84.3269 38.6443 84.6445L38.5998 84.5994H38.0816H37.4746C33.3229 84.6002 29.3367 82.9452 26.3728 79.9902C23.4089 77.0353 21.704 73.0163 21.6245 68.7971C21.6245 68.6918 21.6245 68.5864 21.6245 68.4811C21.6245 68.3757 21.6245 68.2704 21.6245 68.165C21.7716 64.2205 23.2784 60.4542 25.8813 57.5248C28.5265 54.6839 32.0905 52.9073 35.9199 52.5208C35.9199 52.5208 36.1494 52.5208 36.4529 52.5208C36.4529 52.5208 36.7639 52.5208 37.0674 52.5208C39.9423 52.3712 42.6614 51.1466 44.7017 49.0825C46.7421 47.0183 47.9596 44.2603 48.1202 41.3388C48.1202 41.2334 48.1202 41.1205 48.1202 41.0077V40.9625L48.2091 40.8722C48.3454 37.1639 49.737 33.6171 52.1488 30.8311C54.5605 28.0452 57.8445 26.1909 61.4458 25.5816C62.149 25.4764 62.8604 25.4386 63.5705 25.4688H64.2516C67.3778 25.2192 70.2998 23.7924 72.4451 21.4677C74.5905 19.143 75.8048 16.088 75.8502 12.9009C75.8956 9.71381 74.7688 6.62432 72.6905 4.23749C70.6122 1.85066 67.7322 0.338439 64.6144 -0.00299123C56.2637 -0.43191 51.3258 8.10884 51.3998 12.7442C51.3998 13.3612 51.5035 13.4967 51.4961 14.3018C51.4442 19.178 48.1424 22.6695 47.0172 23.866C47.0172 23.866 43.5673 27.2973 39.5326 28.4712C38.5338 28.7449 37.502 28.8741 36.4677 28.855C34.9369 28.853 33.4207 29.1576 32.0057 29.7515C30.5907 30.3454 29.3047 31.2168 28.2212 32.3161C27.1377 33.4153 26.2779 34.7208 25.691 36.1579C25.104 37.595 24.8014 39.1356 24.8004 40.6916V40.812C24.8004 40.812 24.8004 40.812 24.8004 40.8572C24.8004 41.0378 24.8004 41.2108 24.8004 41.3839C24.8055 41.6716 24.8327 41.9584 24.8819 42.2418C24.8819 42.4525 24.9337 42.603 24.9337 42.618C24.7545 46.4037 23.1978 49.9866 20.5659 52.6713C17.8799 55.3825 14.3969 57.1289 10.6457 57.6452H10.2755L10.2089 57.7129C9.9794 57.7129 9.7573 57.7129 9.52781 57.7731C6.94263 58.0699 4.55145 59.3108 2.79891 61.2652C1.04637 63.2196 0.051748 65.7544 0 68.3983C0 68.4811 0 68.5563 0 68.6391C0 68.8423 0 69.0454 0 69.2411C0.148775 71.9921 1.3146 74.5845 3.26398 76.499C5.21336 78.4135 7.80235 79.5087 10.5124 79.5652H10.853L11.5933 79.5126C11.771 79.5126 11.956 79.5126 12.2077 79.4599H12.3928C12.6394 79.4465 12.8865 79.4465 13.1331 79.4599C16.8954 79.5977 20.4916 81.0699 23.2976 83.6211C26.1635 86.2897 27.9831 89.922 28.4206 93.8475C28.4206 94.0281 28.4206 94.2162 28.4206 94.4043L28.465 95.9093C28.6968 97.9501 29.5364 99.8702 30.8713 101.413C32.2062 102.955 33.9729 104.046 35.9347 104.54C36.6978 104.731 37.4809 104.827 38.2667 104.826H38.4962H38.7923H39.2291C39.514 104.791 39.8011 104.779 40.0879 104.789C43.7531 104.988 47.2366 106.475 49.9436 108.995C52.6507 111.514 54.4135 114.911 54.9311 118.604C55.0015 119.181 55.0237 119.762 54.9977 120.343V120.561C54.9977 120.674 54.9977 120.779 54.9977 120.884C54.9977 120.99 54.9977 121.103 54.9977 121.208C55.0601 122.875 55.5717 124.492 56.4766 125.883C57.3815 127.274 58.645 128.386 60.1292 129.098C61.6134 129.809 63.2613 130.092 64.893 129.916C66.5247 129.74 68.0776 129.112 69.3822 128.101C70.6868 127.089 71.6929 125.733 72.2909 124.18C72.8888 122.627 73.0555 120.936 72.7729 119.293C72.4902 117.65 71.7691 116.118 70.6881 114.863C69.607 113.609 68.2077 112.68 66.6428 112.178C66.2801 112.08 65.9025 111.982 65.4435 111.907C64.9845 111.832 64.7032 111.787 64.3775 111.757L63.689 111.674C59.5387 111.591 55.5858 109.858 52.6791 106.845C49.7724 103.833 48.1436 99.7825 48.1424 95.5631C48.1424 95.4578 48.1424 95.36 48.1424 95.2621C48.1424 95.1719 48.1424 95.074 48.1424 94.9837V94.9085C48.1424 94.6526 48.1424 94.3968 48.1943 94.156L48.1276 94.0958C48.5016 90.2149 50.2484 86.6038 53.0435 83.9329C55.8387 81.262 59.4924 79.7127 63.3262 79.5727Z" fill="#31313C"/>
</g>
<defs>
<clipPath id="clip0_119_4933">
<rect width="434" height="130" fill="white"/>
</clipPath>
</defs>
</svg>
