<svg width="57" height="56" viewBox="0 0 57 56" fill="none" xmlns="http://www.w3.org/2000/svg">
<rect x="0.5" width="56" height="56" rx="28" fill="#000027" fill-opacity="0.7"/>
<g clip-path="url(#clip0_119_3573)">
<path fill-rule="evenodd" clip-rule="evenodd" d="M31.7909 29.5863C31.5846 29.7934 31.3197 29.9322 31.032 29.984L27.6035 30.6011C27.3783 30.6419 27.1466 30.628 26.928 30.5605C26.7093 30.4931 26.5101 30.3741 26.347 30.2136C26.1839 30.0531 26.0618 29.8557 25.9909 29.6382C25.9199 29.4206 25.9023 29.1892 25.9395 28.9634L26.5109 25.4891C26.5594 25.1933 26.6997 24.9202 26.912 24.7086L31.6423 20H23.3566C22.902 20 22.4659 20.1806 22.1444 20.5021C21.8229 20.8236 21.6423 21.2596 21.6423 21.7143V31.9074L20.5292 35.248C20.4969 35.3451 20.4913 35.449 20.5129 35.549C20.5345 35.649 20.5825 35.7413 20.652 35.8164C20.7215 35.8915 20.8098 35.9465 20.9078 35.9758C21.0058 36.0051 21.1099 36.0075 21.2092 35.9829L25.712 34.8571H34.7852C35.2398 34.8571 35.6759 34.6765 35.9974 34.355C36.3189 34.0336 36.4995 33.5975 36.4995 33.1429V24.8571L31.7909 29.5863ZM34.5783 20.088C34.3685 20.0005 34.1373 19.9776 33.9144 20.0222C33.6915 20.0668 33.4869 20.1768 33.3269 20.3383L27.9212 25.7211L27.3498 29.1954L30.7783 28.5783L36.1612 23.1726C36.2683 23.0663 36.3533 22.9399 36.4113 22.8007C36.4694 22.6614 36.4992 22.512 36.4992 22.3611C36.4992 22.2103 36.4694 22.0609 36.4113 21.9216C36.3533 21.7824 36.2683 21.656 36.1612 21.5497L34.9498 20.3383C34.8438 20.2308 34.7175 20.1453 34.5783 20.0869V20.088Z" fill="white"/>
</g>
<defs>
<clipPath id="clip0_119_3573">
<rect width="16" height="16" fill="white" transform="translate(20.5 20)"/>
</clipPath>
</defs>
</svg>
