<svg width="48" height="48" viewBox="0 0 48 48" fill="none" xmlns="http://www.w3.org/2000/svg">
<rect width="48" height="48" rx="24" fill="#000027" fill-opacity="0.7"/>
<path d="M23.2364 20.5398L20.9455 18.0341C20.7273 17.7955 20.6182 17.517 20.6182 17.1989C20.6182 16.8807 20.7273 16.6023 20.9455 16.3636L23.2364 13.858C23.4545 13.6193 23.7091 13.5 24 13.5C24.2909 13.5 24.5455 13.6193 24.7636 13.858L27.0545 16.3636C27.2727 16.6023 27.3818 16.8807 27.3818 17.1989C27.3818 17.517 27.2727 17.7955 27.0545 18.0341L24.7636 20.5398C24.5455 20.7784 24.2909 20.8977 24 20.8977C23.7091 20.8977 23.4545 20.7784 23.2364 20.5398ZM13.0909 34.5C12.7818 34.5 12.5229 34.3855 12.3142 34.1564C12.1055 33.9273 12.0007 33.6441 12 33.3068V29.7273C12 29.0511 12.2138 28.4844 12.6415 28.027C13.0691 27.5696 13.5825 27.3409 14.1818 27.3409H17.7545C18.1182 27.3409 18.4636 27.4403 18.7909 27.6392C19.1182 27.8381 19.3818 28.1065 19.5818 28.4446C20.1091 29.2202 20.7593 29.8267 21.5324 30.2642C22.3055 30.7017 23.128 30.9205 24 30.9205C24.8909 30.9205 25.7229 30.7017 26.496 30.2642C27.2691 29.8267 27.9098 29.2202 28.4182 28.4446C28.6545 28.1065 28.932 27.8381 29.2505 27.6392C29.5691 27.4403 29.9007 27.3409 30.2455 27.3409H33.8182C34.4364 27.3409 34.9545 27.5696 35.3727 28.027C35.7909 28.4844 36 29.0511 36 29.7273V33.3068C36 33.6449 35.8953 33.9285 35.6858 34.1576C35.4764 34.3866 35.2175 34.5008 34.9091 34.5H29.4545C29.1455 34.5 28.8865 34.3855 28.6778 34.1564C28.4691 33.9273 28.3644 33.6441 28.3636 33.3068V31.7855C27.7273 32.2827 27.0407 32.6605 26.304 32.919C25.5673 33.1776 24.7993 33.3068 24 33.3068C23.2182 33.3068 22.4545 33.1728 21.7091 32.9047C20.9636 32.6366 20.2727 32.2536 19.6364 31.7557V33.3068C19.6364 33.6449 19.5316 33.9285 19.3222 34.1576C19.1127 34.3866 18.8538 34.5008 18.5455 34.5H13.0909ZM15.2727 26.1477C14.3636 26.1477 13.5909 25.7997 12.9545 25.1037C12.3182 24.4077 12 23.5625 12 22.5682C12 21.554 12.3182 20.704 12.9545 20.0184C13.5909 19.3327 14.3636 18.9894 15.2727 18.9886C16.2 18.9886 16.9775 19.3319 17.6051 20.0184C18.2327 20.7048 18.5462 21.5548 18.5455 22.5682C18.5455 23.5625 18.232 24.4077 17.6051 25.1037C16.9782 25.7997 16.2007 26.1477 15.2727 26.1477ZM32.7273 26.1477C31.8182 26.1477 31.0455 25.7997 30.4091 25.1037C29.7727 24.4077 29.4545 23.5625 29.4545 22.5682C29.4545 21.554 29.7727 20.704 30.4091 20.0184C31.0455 19.3327 31.8182 18.9894 32.7273 18.9886C33.6545 18.9886 34.432 19.3319 35.0596 20.0184C35.6873 20.7048 36.0007 21.5548 36 22.5682C36 23.5625 35.6865 24.4077 35.0596 25.1037C34.4327 25.7997 33.6553 26.1477 32.7273 26.1477Z" fill="#FAFAFA"/>
</svg>
