<svg width="48" height="48" viewBox="0 0 48 48" fill="none" xmlns="http://www.w3.org/2000/svg">
<rect width="48" height="48" rx="24" fill="#000027" fill-opacity="0.6"/>
<path d="M24.0011 13.9995C20.0071 13.9995 16.7578 17.2488 16.7578 21.2427C16.7578 26.1993 23.2398 33.4758 23.5158 33.7831C23.775 34.0718 24.2276 34.0713 24.4864 33.7831C24.7623 33.4758 31.2443 26.1993 31.2443 21.2427C31.2442 17.2488 27.995 13.9995 24.0011 13.9995ZM24.0011 24.887C21.9916 24.887 20.3568 23.2522 20.3568 21.2427C20.3568 19.2333 21.9916 17.5985 24.0011 17.5985C26.0105 17.5985 27.6453 19.2333 27.6453 21.2428C27.6453 23.2522 26.0105 24.887 24.0011 24.887Z" fill="#FAFAFA"/>
</svg>
