<svg width="49" height="48" viewBox="0 0 49 48" fill="none" xmlns="http://www.w3.org/2000/svg">
<rect x="0.5" width="48" height="48" rx="24" fill="#000027" fill-opacity="0.6"/>
<path d="M29.5 33.0003C27.8463 32.9988 26.2183 32.5901 24.76 31.8103L24.31 31.5603C21.2008 29.8886 18.6517 27.3395 16.98 24.2303L16.73 23.7803C15.9298 22.3137 15.5071 20.671 15.5 19.0003V18.3303C15.4996 17.7972 15.712 17.2861 16.09 16.9103L17.78 15.2203C17.9441 15.0549 18.1758 14.9751 18.407 15.0045C18.6381 15.0339 18.8425 15.1691 18.96 15.3703L21.21 19.2303C21.4375 19.6232 21.3718 20.12 21.05 20.4403L19.16 22.3303C19.003 22.4855 18.9665 22.7253 19.07 22.9203L19.42 23.5803C20.677 25.9087 22.5893 27.8175 24.92 29.0703L25.58 29.4303C25.775 29.5338 26.0148 29.4972 26.17 29.3403L28.06 27.4503C28.3802 27.1285 28.8771 27.0628 29.27 27.2903L33.13 29.5403C33.3312 29.6578 33.4664 29.8622 33.4957 30.0933C33.5251 30.3245 33.4454 30.5562 33.28 30.7203L31.59 32.4103C31.2142 32.7883 30.703 33.0007 30.17 33.0003H29.5Z" fill="#FAFAFA"/>
</svg>
