<svg width="57" height="56" viewBox="0 0 57 56" fill="none" xmlns="http://www.w3.org/2000/svg">
<rect x="0.5" width="56" height="56" rx="28" fill="#000027" fill-opacity="0.7"/>
<path d="M33.5 39C33.1883 39 32.9273 38.8944 32.7168 38.6832C32.5063 38.472 32.4007 38.2109 32.4 37.9V36.525C31.685 36.2867 31.0433 35.9248 30.475 35.4393C29.9067 34.9538 29.4575 34.3716 29.1275 33.6925C28.9808 33.4175 28.9808 33.1425 29.1275 32.8675C29.2742 32.5925 29.4942 32.3908 29.7875 32.2625C30.0442 32.1525 30.3008 32.1617 30.5575 32.29C30.8142 32.4183 31.0158 32.6108 31.1625 32.8675C31.4558 33.3992 31.8592 33.8208 32.3725 34.1325C32.8858 34.4442 33.445 34.6 34.05 34.6H37.35C37.8083 34.6 38.1981 34.7606 38.5193 35.0818C38.8405 35.403 39.0007 35.7924 39 36.25V37.9C39 38.2117 38.8944 38.4731 38.6832 38.6843C38.472 38.8955 38.2109 39.0007 37.9 39H33.5ZM35.7 33.5C35.095 33.5 34.5773 33.2848 34.1468 32.8543C33.7163 32.4238 33.5007 31.9057 33.5 31.3C33.4993 30.6943 33.7149 30.1765 34.1468 29.7468C34.5787 29.3171 35.0965 29.1015 35.7 29.1C36.3035 29.0985 36.8216 29.3141 37.2543 29.7468C37.687 30.1795 37.9022 30.6972 37.9 31.3C37.8978 31.9028 37.6826 32.4209 37.2543 32.8543C36.826 33.2877 36.3079 33.5029 35.7 33.5ZM18.1 26.9C17.7883 26.9 17.5273 26.7944 17.3168 26.5832C17.1063 26.372 17.0007 26.1109 17 25.8V24.15C17 23.6917 17.1606 23.3023 17.4818 22.9818C17.803 22.6613 18.1924 22.5007 18.65 22.5H21.95C22.555 22.5 23.1142 22.3442 23.6275 22.0325C24.1408 21.7208 24.5442 21.2992 24.8375 20.7675C24.9842 20.5108 25.1858 20.3048 25.4425 20.1493C25.6992 19.9938 25.965 19.9616 26.24 20.0525C26.5517 20.1442 26.79 20.3183 26.955 20.575C27.12 20.8317 27.1475 21.0975 27.0375 21.3725C26.7258 22.1242 26.2675 22.7567 25.6625 23.27C25.0575 23.7833 24.37 24.1683 23.6 24.425V25.8C23.6 26.1117 23.4944 26.3731 23.2832 26.5843C23.072 26.7955 22.8109 26.9007 22.5 26.9H18.1ZM20.3 21.4C19.695 21.4 19.1773 21.1848 18.7468 20.7543C18.3163 20.3238 18.1007 19.8057 18.1 19.2C18.0993 18.5943 18.3149 18.0765 18.7468 17.6468C19.1787 17.2171 19.6965 17.0015 20.3 17C20.9035 16.9985 21.4216 17.2141 21.8543 17.6468C22.287 18.0795 22.5022 18.5972 22.5 19.2C22.4978 19.8028 22.2826 20.3209 21.8543 20.7543C21.426 21.1877 20.9079 21.4029 20.3 21.4ZM25.8 30.2C25.4883 30.2 25.2273 30.0944 25.0168 29.8832C24.8063 29.672 24.7007 29.4109 24.7 29.1C24.7 26.6433 25.5525 24.5625 27.2575 22.8575C28.9625 21.1525 31.0433 20.3 33.5 20.3C33.8117 20.3 34.0731 20.4052 34.2843 20.6157C34.4955 20.8262 34.6007 21.0876 34.6 21.4C34.5993 21.7124 34.4937 21.9738 34.2832 22.1843C34.0727 22.3948 33.8117 22.5 33.5 22.5C31.6667 22.5 30.1083 23.1417 28.825 24.425C27.5417 25.7083 26.9 27.2667 26.9 29.1C26.9 29.4117 26.7944 29.6731 26.5832 29.8843C26.372 30.0955 26.1109 30.2007 25.8 30.2ZM30.2 30.2C29.8883 30.2 29.6273 30.0944 29.4168 29.8832C29.2063 29.672 29.1007 29.4109 29.1 29.1C29.1 27.89 29.5308 26.8542 30.3925 25.9925C31.2542 25.1308 32.29 24.7 33.5 24.7C33.8117 24.7 34.0731 24.8056 34.2843 25.0168C34.4955 25.228 34.6007 25.4891 34.6 25.8C34.5993 26.1109 34.4937 26.3724 34.2832 26.5843C34.0727 26.7962 33.8117 26.9015 33.5 26.9C32.895 26.9 32.3773 27.1156 31.9468 27.5468C31.5163 27.978 31.3007 28.4957 31.3 29.1C31.3 29.4117 31.1944 29.6731 30.9832 29.8843C30.772 30.0955 30.5109 30.2007 30.2 30.2Z" fill="white"/>
</svg>
