<svg width="49" height="49" viewBox="0 0 49 49" fill="none" xmlns="http://www.w3.org/2000/svg">
<rect x="0.5" y="0.5" width="48" height="48" rx="24" fill="#000027" fill-opacity="0.6"/>
<path d="M33.5 18.8C33.5 18.01 33.03 17.29 32.31 16.97L25.31 13.86C24.79 13.63 24.2 13.63 23.69 13.86L16.69 16.97C15.97 17.29 15.5 18.01 15.5 18.8V23.5C15.5 29.05 19.34 34.24 24.5 35.5C26.8 34.94 28.83 33.6 30.38 31.79L27.26 28.67C26.2987 29.3054 25.1472 29.5888 24.0008 29.4721C22.8544 29.3555 21.7836 28.846 20.97 28.03C20.0334 27.092 19.5073 25.8206 19.5073 24.495C19.5073 23.1694 20.0334 21.898 20.97 20.96C21.908 20.0234 23.1794 19.4973 24.505 19.4973C25.8306 19.4973 27.102 20.0234 28.04 20.96C28.854 21.7748 29.3621 22.8454 29.4787 23.9912C29.5952 25.137 29.3132 26.2879 28.68 27.25L31.58 30.15C32.79 28.19 33.5 25.88 33.5 23.5V18.8Z" fill="#FAFAFA"/>
<path d="M24.5 27.5C26.1569 27.5 27.5 26.1569 27.5 24.5C27.5 22.8431 26.1569 21.5 24.5 21.5C22.8431 21.5 21.5 22.8431 21.5 24.5C21.5 26.1569 22.8431 27.5 24.5 27.5Z" fill="#FAFAFA"/>
</svg>
