<svg width="57" height="56" viewBox="0 0 57 56" fill="none" xmlns="http://www.w3.org/2000/svg">
<rect x="0.5" width="56" height="56" rx="28" fill="#000027" fill-opacity="0.7"/>
<path d="M24.2555 29.38V36.21C24.2555 36.6184 24.0933 37.0101 23.8044 37.2989C23.5156 37.5878 23.1239 37.75 22.7155 37.75H20.9055C20.7024 37.7513 20.5011 37.7125 20.3131 37.6357C20.1251 37.5589 19.9541 37.4456 19.8101 37.3025C19.666 37.1594 19.5517 36.9891 19.4737 36.8017C19.3957 36.6142 19.3555 36.4131 19.3555 36.21V29.38C19.3542 29.1761 19.3934 28.9739 19.4708 28.7853C19.5482 28.5966 19.6623 28.4252 19.8065 28.281C19.9507 28.1368 20.1221 28.0227 20.3108 27.9453C20.4994 27.8679 20.7016 27.8287 20.9055 27.83H22.7155C22.9187 27.8297 23.1199 27.8697 23.3075 27.9476C23.4951 28.0256 23.6654 28.1399 23.8086 28.284C23.9518 28.4281 24.065 28.5992 24.1417 28.7873C24.2184 28.9754 24.2571 29.1769 24.2555 29.38ZM30.9555 19.8V36.21C30.9555 36.4131 30.9153 36.6142 30.8373 36.8017C30.7593 36.9891 30.645 37.1594 30.5009 37.3025C30.3569 37.4456 30.1859 37.5589 29.9979 37.6357C29.8099 37.7125 29.6086 37.7513 29.4055 37.75H27.5955C27.1861 37.75 26.7934 37.5881 26.503 37.2996C26.2126 37.011 26.0481 36.6193 26.0455 36.21V19.8C26.0481 19.3897 26.2123 18.997 26.5024 18.7069C26.7925 18.4168 27.1852 18.2526 27.5955 18.25H29.4055C29.8166 18.25 30.2108 18.4133 30.5015 18.704C30.7922 18.9947 30.9555 19.3889 30.9555 19.8ZM37.6455 24.98V36.21C37.6455 36.6184 37.4833 37.0101 37.1944 37.2989C36.9056 37.5878 36.5139 37.75 36.1055 37.75H34.2955C34.0924 37.7516 33.8909 37.7129 33.7028 37.6362C33.5147 37.5595 33.3436 37.4463 33.1995 37.3031C33.0554 37.1599 32.9411 36.9896 32.8631 36.802C32.7852 36.6144 32.7452 36.4132 32.7455 36.21V24.98C32.7455 24.7765 32.7856 24.5749 32.8635 24.3868C32.9414 24.1988 33.0556 24.0279 33.1995 23.884C33.3434 23.7401 33.5143 23.6259 33.7023 23.548C33.8904 23.4701 34.092 23.43 34.2955 23.43H36.1455C36.5479 23.443 36.9294 23.612 37.2093 23.9013C37.4893 24.1906 37.6457 24.5774 37.6455 24.98Z" fill="white"/>
</svg>
