<svg width="57" height="56" viewBox="0 0 57 56" fill="none" xmlns="http://www.w3.org/2000/svg">
<rect x="0.5" width="56" height="56" rx="28" fill="#000027" fill-opacity="0.7"/>
<path d="M34.218 31.1874C33.3623 31.1872 32.5406 31.5222 31.9291 32.1207L25.968 28.7691C26.0905 28.2636 26.0905 27.7362 25.968 27.2307L31.9272 23.8791C32.4839 24.4207 33.2152 24.7464 33.9902 24.7979C34.7651 24.8495 35.5331 24.6235 36.1567 24.1605C36.7802 23.6975 37.2186 23.0277 37.3934 22.2709C37.5682 21.5142 37.4679 20.72 37.1105 20.0304C36.7531 19.3409 36.162 18.801 35.4429 18.5076C34.7238 18.2141 33.9237 18.1861 33.1859 18.4287C32.4481 18.6713 31.8208 19.1686 31.4161 19.8315C31.0115 20.4944 30.856 21.2797 30.9775 22.0468L24.8777 25.478C24.3986 25.0789 23.8156 24.8245 23.1971 24.7447C22.5786 24.6649 21.9502 24.763 21.3854 25.0276C20.8207 25.2921 20.343 25.7121 20.0084 26.2384C19.6738 26.7646 19.4961 27.3754 19.4961 27.999C19.4961 28.6226 19.6738 29.2333 20.0084 29.7596C20.343 30.2858 20.8207 30.7058 21.3854 30.9704C21.9502 31.2349 22.5786 31.3331 23.1971 31.2533C23.8156 31.1735 24.3986 30.9191 24.8777 30.5199L30.9775 33.953C30.8721 34.6157 30.9724 35.2948 31.2648 35.8988C31.5573 36.5027 32.0279 37.0025 32.6132 37.3307C33.1985 37.6589 33.8703 37.7997 34.5382 37.7343C35.206 37.6688 35.8377 37.4001 36.3481 36.9645C36.8585 36.5289 37.2231 35.9473 37.3927 35.298C37.5623 34.6488 37.5288 33.9631 37.2967 33.3335C37.0645 32.7039 36.6449 32.1606 36.0944 31.7769C35.5439 31.3931 34.889 31.1874 34.218 31.1874Z" fill="white"/>
</svg>
